# xmcd
#
# Track frame offsets:
#	150
#	9692
#	20269
#	45226
#	62786
#	93578
#	106586
#	137303
#	157878
#	175967
#	192839
#	210786
#	223614
#	236783
#	251515
#	268551
#	284328
#
# Disc length: 4069 seconds
#
# Revision: 0
# Processed by: cddbd v1.5.2PL0 Copyright (c) Steve Scherf et al.
# Submitted via: EasyCDDAExtractor 16.0.8.2
#
DISCID=db0fe311
DTITLE=Άνευ ερμηνευτού - Όλοι κλαρίνο 1 Οι σύγχρονοι
DYEAR=2014
DGENRE=Παραδοσιακή
TTITLE0=Ποταμιά [Πετρολούκας Χαλκιάς]
TTITLE1=Μοδιστράκι [Γρηγόρης Καψάλης/Ιδιόμελο]
TTITLE2=Μπεράτι Ηπείρου [Σταύρος Καψάλης]
TTITLE3=Παπαδιά [Μάνος Αχαλινωτοπουλος]
TTITLE4=Κίνικ [Σταύρος Κουσκουρίδας]
TTITLE5=Ιτιά καρακωστέϊκη [Ηλίας Τσιάκας]
TTITLE6=Λιασκοβίτικος τσακιστός [Αλέξ. Αρκαδόπουλος]
TTITLE7=Γενοβέφα [Γιώργος Κωτσίνης]
TTITLE8=Αργυροκαστρίτικο κοφτό [Ναπολέων Δάμος]
TTITLE9=Χαμογελούν τα χείλη σου [Γιώργος Μάγγας]
TTITLE10=Πατινάδα γάμου Θεσσαλίας [Νίκος Φιλιππίδης]
TTITLE11=Μπεράτι Θεσσαλίας [Κυριάκος Κωστούλας]
TTITLE12=Χασαποσέρβικο Μακεδονίας [Βαγγ. Γευγελής]
TTITLE13=Ακαρνάνος [Παναγιώ της Πλαστήρας]
TTITLE14=Φάρσαλα [Παναγιώτης Πλακιάς]
TTITLE15=Ανατολή [Σταύρος Παζαρέντζης]
TTITLE16=Βασιλικός [Βασίλης Σαλέας]
EXTD=
EXTT0=
EXTT1=
EXTT2=
EXTT3=
EXTT4=
EXTT5=
EXTT6=
EXTT7=
EXTT8=
EXTT9=
EXTT10=
EXTT11=
EXTT12=
EXTT13=
EXTT14=
EXTT15=
EXTT16=
PLAYORDER=
